<mxfile host="app.diagrams.net" modified="2023-07-26T16:37:48.289Z" agent="Mozilla/5.0 (Windows NT 10.0; Win64; x64) AppleWebKit/537.36 (KHTML, like Gecko) Chrome/114.0.0.0 Safari/537.36" etag="ZG8RkcCM6KZWlIMNbKsI" version="21.6.5" type="github">
  <diagram name="Page-1" id="A3ZwRgTipRTVaRwJ3TqT">
    <mxGraphModel dx="6704" dy="1912" grid="1" gridSize="10" guides="1" tooltips="1" connect="1" arrows="1" fold="1" page="1" pageScale="1" pageWidth="2336" pageHeight="1654" background="#ffffff" math="0" shadow="0">
      <root>
        <mxCell id="0" />
        <mxCell id="1" parent="0" />
        <mxCell id="yPEbqdjur7bi0oB6oJt5-6" value="UNITED PHARMA WEB APPLICATION" style="whiteSpace=wrap;rounded=1;shadow=1;fillColor=#0050ef;strokeColor=#001DBC;fontColor=#ffffff;fontStyle=1;fontSize=28;" vertex="1" parent="1">
          <mxGeometry x="-1373" y="40" width="453.33" height="80" as="geometry" />
        </mxCell>
        <mxCell id="yPEbqdjur7bi0oB6oJt5-7" value="1 Project Initiation" style="whiteSpace=wrap;rounded=1;shadow=1;fontStyle=0;fontSize=24;fillColor=#FF3333;strokeColor=#990000;fontColor=#FFFFFF;fontFamily=Verdana;" vertex="1" parent="1">
          <mxGeometry x="-2153" y="302.9999999999998" width="220" height="90" as="geometry" />
        </mxCell>
        <mxCell id="yPEbqdjur7bi0oB6oJt5-8" value="2 Requirement Gathering and Analysis" style="whiteSpace=wrap;rounded=1;shadow=1;fontStyle=0;fontSize=24;fillColor=#FF3333;strokeColor=#990000;fontColor=#FFFFFF;fontFamily=Verdana;" vertex="1" parent="1">
          <mxGeometry x="-1783" y="302.9999999999998" width="220" height="90" as="geometry" />
        </mxCell>
        <mxCell id="yPEbqdjur7bi0oB6oJt5-9" value="6 Deployment" style="whiteSpace=wrap;rounded=1;shadow=1;fontStyle=0;fontSize=24;fillColor=#FF3333;strokeColor=#990000;fontColor=#FFFFFF;fontFamily=Verdana;" vertex="1" parent="1">
          <mxGeometry x="-303" y="302.9999999999998" width="220" height="90" as="geometry" />
        </mxCell>
        <mxCell id="yPEbqdjur7bi0oB6oJt5-10" value="3 Design and Architecture" style="whiteSpace=wrap;rounded=1;shadow=1;fontStyle=0;fontSize=24;fillColor=#FF3333;strokeColor=#990000;fontColor=#FFFFFF;fontFamily=Verdana;" vertex="1" parent="1">
          <mxGeometry x="-1413" y="302.9999999999998" width="220" height="90" as="geometry" />
        </mxCell>
        <mxCell id="yPEbqdjur7bi0oB6oJt5-11" value="4 Development" style="whiteSpace=wrap;rounded=1;shadow=1;fontStyle=0;fontSize=24;fillColor=#FF3333;strokeColor=#990000;fontColor=#FFFFFF;fontFamily=Verdana;" vertex="1" parent="1">
          <mxGeometry x="-1043" y="302.9999999999998" width="220" height="90" as="geometry" />
        </mxCell>
        <mxCell id="yPEbqdjur7bi0oB6oJt5-12" value="5 Testing and Quality Assurance" style="whiteSpace=wrap;rounded=1;shadow=1;fontStyle=0;fontSize=24;fillColor=#FF3333;strokeColor=#990000;fontColor=#FFFFFF;fontFamily=Verdana;" vertex="1" parent="1">
          <mxGeometry x="-673" y="302.9999999999998" width="220" height="90" as="geometry" />
        </mxCell>
        <mxCell id="yPEbqdjur7bi0oB6oJt5-13" value="SUB-TASK 1" style="whiteSpace=wrap;rounded=1;fillColor=#12AAB5;strokeColor=none;shadow=1;fontColor=#FFFFFF;" vertex="1" parent="1">
          <mxGeometry x="-2243" y="530.0000000000001" width="120" height="60" as="geometry" />
        </mxCell>
        <mxCell id="yPEbqdjur7bi0oB6oJt5-14" value="SUB-TASK 2" style="whiteSpace=wrap;rounded=1;fillColor=#12AAB5;strokeColor=none;shadow=1;fontColor=#FFFFFF;" vertex="1" parent="1">
          <mxGeometry x="-2043" y="530.0000000000001" width="120" height="60" as="geometry" />
        </mxCell>
        <mxCell id="yPEbqdjur7bi0oB6oJt5-15" value="WORK&#xa;PACKAGE 1" style="whiteSpace=wrap;rounded=1;fillColor=#999999;strokeColor=none;shadow=1;fontColor=#FFFFFF;fontStyle=0" vertex="1" parent="1">
          <mxGeometry x="-2243" y="630" width="120" height="60" as="geometry" />
        </mxCell>
        <mxCell id="yPEbqdjur7bi0oB6oJt5-16" value="WORK&#xa;PACKAGE 2" style="whiteSpace=wrap;rounded=1;fillColor=#999999;strokeColor=none;shadow=1;fontColor=#FFFFFF;fontStyle=0" vertex="1" parent="1">
          <mxGeometry x="-2243" y="710" width="120" height="60" as="geometry" />
        </mxCell>
        <mxCell id="yPEbqdjur7bi0oB6oJt5-17" value="WORK&#xa;PACKAGE 3" style="whiteSpace=wrap;rounded=1;fillColor=#999999;strokeColor=none;shadow=1;fontColor=#FFFFFF;fontStyle=0" vertex="1" parent="1">
          <mxGeometry x="-2243" y="790" width="120" height="60" as="geometry" />
        </mxCell>
        <mxCell id="yPEbqdjur7bi0oB6oJt5-18" value="WORK&#xa;PACKAGE 4" style="whiteSpace=wrap;rounded=1;fillColor=#999999;strokeColor=none;shadow=1;fontColor=#FFFFFF;fontStyle=0" vertex="1" parent="1">
          <mxGeometry x="-2243" y="870" width="120" height="60" as="geometry" />
        </mxCell>
        <mxCell id="yPEbqdjur7bi0oB6oJt5-19" value="WORK&#xa;PACKAGE 5" style="whiteSpace=wrap;rounded=1;fillColor=#999999;strokeColor=none;shadow=1;fontColor=#FFFFFF;fontStyle=0" vertex="1" parent="1">
          <mxGeometry x="-2242.9999999999995" y="950" width="120" height="60" as="geometry" />
        </mxCell>
        <mxCell id="yPEbqdjur7bi0oB6oJt5-20" value="WORK&#xa;PACKAGE 1" style="whiteSpace=wrap;rounded=1;fillColor=#999999;strokeColor=none;shadow=1;fontColor=#FFFFFF;fontStyle=0" vertex="1" parent="1">
          <mxGeometry x="-2043.0000000000005" y="630" width="120" height="60" as="geometry" />
        </mxCell>
        <mxCell id="yPEbqdjur7bi0oB6oJt5-21" value="WORK&#xa;PACKAGE 2" style="whiteSpace=wrap;rounded=1;fillColor=#999999;strokeColor=none;shadow=1;fontColor=#FFFFFF;fontStyle=0" vertex="1" parent="1">
          <mxGeometry x="-2043" y="710" width="120" height="60" as="geometry" />
        </mxCell>
        <mxCell id="yPEbqdjur7bi0oB6oJt5-22" value="WORK&#xa;PACKAGE 3" style="whiteSpace=wrap;rounded=1;fillColor=#999999;strokeColor=none;shadow=1;fontColor=#FFFFFF;fontStyle=0" vertex="1" parent="1">
          <mxGeometry x="-2043" y="790" width="120" height="60" as="geometry" />
        </mxCell>
        <mxCell id="yPEbqdjur7bi0oB6oJt5-23" value="WORK&#xa;PACKAGE 4" style="whiteSpace=wrap;rounded=1;fillColor=#999999;strokeColor=none;shadow=1;fontColor=#FFFFFF;fontStyle=0" vertex="1" parent="1">
          <mxGeometry x="-2043" y="870" width="120" height="60" as="geometry" />
        </mxCell>
        <mxCell id="yPEbqdjur7bi0oB6oJt5-24" value="WORK&#xa;PACKAGE 5" style="whiteSpace=wrap;rounded=1;fillColor=#999999;strokeColor=none;shadow=1;fontColor=#FFFFFF;fontStyle=0" vertex="1" parent="1">
          <mxGeometry x="-2043" y="950" width="120" height="60" as="geometry" />
        </mxCell>
        <mxCell id="yPEbqdjur7bi0oB6oJt5-25" value="SUB-TASK 1" style="whiteSpace=wrap;rounded=1;fillColor=#12AAB5;strokeColor=none;shadow=1;fontColor=#FFFFFF;" vertex="1" parent="1">
          <mxGeometry x="-1873.0000000000002" y="530.0000000000001" width="120" height="60" as="geometry" />
        </mxCell>
        <mxCell id="yPEbqdjur7bi0oB6oJt5-26" value="SUB-TASK 2" style="whiteSpace=wrap;rounded=1;fillColor=#12AAB5;strokeColor=none;shadow=1;fontColor=#FFFFFF;" vertex="1" parent="1">
          <mxGeometry x="-1673.0000000000002" y="530.0000000000001" width="120" height="60" as="geometry" />
        </mxCell>
        <mxCell id="yPEbqdjur7bi0oB6oJt5-27" value="WORK&#xa;PACKAGE 1" style="whiteSpace=wrap;rounded=1;fillColor=#999999;strokeColor=none;shadow=1;fontColor=#FFFFFF;fontStyle=0" vertex="1" parent="1">
          <mxGeometry x="-1873.0000000000002" y="630" width="120" height="60" as="geometry" />
        </mxCell>
        <mxCell id="yPEbqdjur7bi0oB6oJt5-28" value="WORK&#xa;PACKAGE 2" style="whiteSpace=wrap;rounded=1;fillColor=#999999;strokeColor=none;shadow=1;fontColor=#FFFFFF;fontStyle=0" vertex="1" parent="1">
          <mxGeometry x="-1873" y="710" width="120" height="60" as="geometry" />
        </mxCell>
        <mxCell id="yPEbqdjur7bi0oB6oJt5-29" value="WORK&#xa;PACKAGE 3" style="whiteSpace=wrap;rounded=1;fillColor=#999999;strokeColor=none;shadow=1;fontColor=#FFFFFF;fontStyle=0" vertex="1" parent="1">
          <mxGeometry x="-1873.0000000000002" y="790" width="120" height="60" as="geometry" />
        </mxCell>
        <mxCell id="yPEbqdjur7bi0oB6oJt5-30" value="WORK&#xa;PACKAGE 4" style="whiteSpace=wrap;rounded=1;fillColor=#999999;strokeColor=none;shadow=1;fontColor=#FFFFFF;fontStyle=0" vertex="1" parent="1">
          <mxGeometry x="-1873" y="870" width="120" height="60" as="geometry" />
        </mxCell>
        <mxCell id="yPEbqdjur7bi0oB6oJt5-31" value="WORK&#xa;PACKAGE 5" style="whiteSpace=wrap;rounded=1;fillColor=#999999;strokeColor=none;shadow=1;fontColor=#FFFFFF;fontStyle=0" vertex="1" parent="1">
          <mxGeometry x="-1873" y="950" width="120" height="60" as="geometry" />
        </mxCell>
        <mxCell id="yPEbqdjur7bi0oB6oJt5-32" value="WORK&#xa;PACKAGE 1" style="whiteSpace=wrap;rounded=1;fillColor=#999999;strokeColor=none;shadow=1;fontColor=#FFFFFF;fontStyle=0" vertex="1" parent="1">
          <mxGeometry x="-1673.0000000000007" y="630" width="120" height="60" as="geometry" />
        </mxCell>
        <mxCell id="yPEbqdjur7bi0oB6oJt5-33" value="WORK&#xa;PACKAGE 2" style="whiteSpace=wrap;rounded=1;fillColor=#999999;strokeColor=none;shadow=1;fontColor=#FFFFFF;fontStyle=0" vertex="1" parent="1">
          <mxGeometry x="-1673.0000000000005" y="710" width="120" height="60" as="geometry" />
        </mxCell>
        <mxCell id="yPEbqdjur7bi0oB6oJt5-34" value="WORK&#xa;PACKAGE 3" style="whiteSpace=wrap;rounded=1;fillColor=#999999;strokeColor=none;shadow=1;fontColor=#FFFFFF;fontStyle=0" vertex="1" parent="1">
          <mxGeometry x="-1673.0000000000005" y="790" width="120" height="60" as="geometry" />
        </mxCell>
        <mxCell id="yPEbqdjur7bi0oB6oJt5-35" value="WORK&#xa;PACKAGE 4" style="whiteSpace=wrap;rounded=1;fillColor=#999999;strokeColor=none;shadow=1;fontColor=#FFFFFF;fontStyle=0" vertex="1" parent="1">
          <mxGeometry x="-1673.0000000000005" y="870" width="120" height="60" as="geometry" />
        </mxCell>
        <mxCell id="yPEbqdjur7bi0oB6oJt5-36" value="WORK&#xa;PACKAGE 5" style="whiteSpace=wrap;rounded=1;fillColor=#999999;strokeColor=none;shadow=1;fontColor=#FFFFFF;fontStyle=0" vertex="1" parent="1">
          <mxGeometry x="-1673.0000000000002" y="950" width="120" height="60" as="geometry" />
        </mxCell>
        <mxCell id="yPEbqdjur7bi0oB6oJt5-37" value="" style="edgeStyle=elbowEdgeStyle;elbow=vertical;rounded=0;fontColor=#000000;endArrow=none;endFill=0;strokeWidth=8;strokeColor=#23445D;" edge="1" parent="1" source="yPEbqdjur7bi0oB6oJt5-7" target="yPEbqdjur7bi0oB6oJt5-13">
          <mxGeometry width="100" height="100" relative="1" as="geometry">
            <mxPoint x="-2293" y="520" as="sourcePoint" />
            <mxPoint x="-2193" y="420" as="targetPoint" />
          </mxGeometry>
        </mxCell>
        <mxCell id="yPEbqdjur7bi0oB6oJt5-38" value="" style="edgeStyle=elbowEdgeStyle;elbow=vertical;rounded=0;fontColor=#000000;endArrow=none;endFill=0;strokeWidth=8;strokeColor=#23445D;" edge="1" parent="1" source="yPEbqdjur7bi0oB6oJt5-7" target="yPEbqdjur7bi0oB6oJt5-14">
          <mxGeometry width="100" height="100" relative="1" as="geometry">
            <mxPoint x="-1953" y="520" as="sourcePoint" />
            <mxPoint x="-1853" y="420" as="targetPoint" />
          </mxGeometry>
        </mxCell>
        <mxCell id="yPEbqdjur7bi0oB6oJt5-39" value="" style="edgeStyle=elbowEdgeStyle;elbow=horizontal;rounded=0;fontColor=#000000;endArrow=none;endFill=0;strokeWidth=8;strokeColor=#23445D;" edge="1" parent="1" source="yPEbqdjur7bi0oB6oJt5-13" target="yPEbqdjur7bi0oB6oJt5-15">
          <mxGeometry width="100" height="100" relative="1" as="geometry">
            <mxPoint x="-2303" y="710" as="sourcePoint" />
            <mxPoint x="-2203" y="610" as="targetPoint" />
            <Array as="points">
              <mxPoint x="-2263" y="610" />
            </Array>
          </mxGeometry>
        </mxCell>
        <mxCell id="yPEbqdjur7bi0oB6oJt5-40" value="" style="edgeStyle=elbowEdgeStyle;elbow=horizontal;rounded=0;fontColor=#000000;endArrow=none;endFill=0;strokeWidth=8;strokeColor=#23445D;" edge="1" parent="1" source="yPEbqdjur7bi0oB6oJt5-13" target="yPEbqdjur7bi0oB6oJt5-16">
          <mxGeometry width="100" height="100" relative="1" as="geometry">
            <mxPoint x="-2233" y="570" as="sourcePoint" />
            <mxPoint x="-2233" y="670" as="targetPoint" />
            <Array as="points">
              <mxPoint x="-2263" y="630" />
            </Array>
          </mxGeometry>
        </mxCell>
        <mxCell id="yPEbqdjur7bi0oB6oJt5-41" value="" style="edgeStyle=elbowEdgeStyle;elbow=horizontal;rounded=0;fontColor=#000000;endArrow=none;endFill=0;strokeWidth=8;strokeColor=#23445D;" edge="1" parent="1" source="yPEbqdjur7bi0oB6oJt5-13" target="yPEbqdjur7bi0oB6oJt5-19">
          <mxGeometry width="100" height="100" relative="1" as="geometry">
            <mxPoint x="-2233" y="570" as="sourcePoint" />
            <mxPoint x="-2233" y="670" as="targetPoint" />
            <Array as="points">
              <mxPoint x="-2263" y="770" />
            </Array>
          </mxGeometry>
        </mxCell>
        <mxCell id="yPEbqdjur7bi0oB6oJt5-42" value="" style="edgeStyle=elbowEdgeStyle;elbow=horizontal;rounded=0;fontColor=#000000;endArrow=none;endFill=0;strokeWidth=8;strokeColor=#23445D;" edge="1" parent="1" source="yPEbqdjur7bi0oB6oJt5-13" target="yPEbqdjur7bi0oB6oJt5-18">
          <mxGeometry width="100" height="100" relative="1" as="geometry">
            <mxPoint x="-2213" y="590" as="sourcePoint" />
            <mxPoint x="-2213" y="690" as="targetPoint" />
            <Array as="points">
              <mxPoint x="-2263" y="640" />
            </Array>
          </mxGeometry>
        </mxCell>
        <mxCell id="yPEbqdjur7bi0oB6oJt5-43" value="" style="edgeStyle=elbowEdgeStyle;elbow=horizontal;rounded=0;fontColor=#000000;endArrow=none;endFill=0;strokeWidth=8;strokeColor=#23445D;" edge="1" parent="1" source="yPEbqdjur7bi0oB6oJt5-13" target="yPEbqdjur7bi0oB6oJt5-17">
          <mxGeometry width="100" height="100" relative="1" as="geometry">
            <mxPoint x="-2203" y="600" as="sourcePoint" />
            <mxPoint x="-2203" y="700" as="targetPoint" />
            <Array as="points">
              <mxPoint x="-2263" y="660" />
            </Array>
          </mxGeometry>
        </mxCell>
        <mxCell id="yPEbqdjur7bi0oB6oJt5-44" value="" style="edgeStyle=elbowEdgeStyle;elbow=horizontal;rounded=0;fontColor=#000000;endArrow=none;endFill=0;strokeWidth=8;strokeColor=#23445D;" edge="1" parent="1" target="yPEbqdjur7bi0oB6oJt5-20">
          <mxGeometry width="100" height="100" relative="1" as="geometry">
            <mxPoint x="-2053" y="560.0000000000005" as="sourcePoint" />
            <mxPoint x="-2053" y="660.0000000000005" as="targetPoint" />
            <Array as="points">
              <mxPoint x="-2063" y="610" />
            </Array>
          </mxGeometry>
        </mxCell>
        <mxCell id="yPEbqdjur7bi0oB6oJt5-45" value="" style="edgeStyle=elbowEdgeStyle;elbow=horizontal;rounded=0;fontColor=#000000;endArrow=none;endFill=0;strokeWidth=8;strokeColor=#23445D;" edge="1" parent="1" source="yPEbqdjur7bi0oB6oJt5-14" target="yPEbqdjur7bi0oB6oJt5-21">
          <mxGeometry width="100" height="100" relative="1" as="geometry">
            <mxPoint x="-2053" y="560.0000000000005" as="sourcePoint" />
            <mxPoint x="-2053" y="740.0000000000005" as="targetPoint" />
            <Array as="points">
              <mxPoint x="-2063" y="650" />
            </Array>
          </mxGeometry>
        </mxCell>
        <mxCell id="yPEbqdjur7bi0oB6oJt5-46" value="" style="edgeStyle=elbowEdgeStyle;elbow=horizontal;rounded=0;fontColor=#000000;endArrow=none;endFill=0;strokeWidth=8;strokeColor=#23445D;" edge="1" parent="1" source="yPEbqdjur7bi0oB6oJt5-14" target="yPEbqdjur7bi0oB6oJt5-24">
          <mxGeometry width="100" height="100" relative="1" as="geometry">
            <mxPoint x="-2053" y="560.0000000000005" as="sourcePoint" />
            <mxPoint x="-2052.9999999999995" y="980.0000000000005" as="targetPoint" />
            <Array as="points">
              <mxPoint x="-2063" y="770" />
            </Array>
          </mxGeometry>
        </mxCell>
        <mxCell id="yPEbqdjur7bi0oB6oJt5-47" value="" style="edgeStyle=elbowEdgeStyle;elbow=horizontal;rounded=0;fontColor=#000000;endArrow=none;endFill=0;strokeWidth=8;strokeColor=#23445D;" edge="1" parent="1" source="yPEbqdjur7bi0oB6oJt5-14" target="yPEbqdjur7bi0oB6oJt5-23">
          <mxGeometry width="100" height="100" relative="1" as="geometry">
            <mxPoint x="-2053" y="560.0000000000005" as="sourcePoint" />
            <mxPoint x="-2053" y="900.0000000000005" as="targetPoint" />
            <Array as="points">
              <mxPoint x="-2063" y="730" />
            </Array>
          </mxGeometry>
        </mxCell>
        <mxCell id="yPEbqdjur7bi0oB6oJt5-48" value="" style="edgeStyle=elbowEdgeStyle;elbow=horizontal;rounded=0;fontColor=#000000;endArrow=none;endFill=0;strokeWidth=8;strokeColor=#23445D;" edge="1" parent="1" source="yPEbqdjur7bi0oB6oJt5-14" target="yPEbqdjur7bi0oB6oJt5-22">
          <mxGeometry width="100" height="100" relative="1" as="geometry">
            <mxPoint x="-2053" y="560.0000000000005" as="sourcePoint" />
            <mxPoint x="-2053" y="820.0000000000005" as="targetPoint" />
            <Array as="points">
              <mxPoint x="-2063" y="690" />
            </Array>
          </mxGeometry>
        </mxCell>
        <mxCell id="yPEbqdjur7bi0oB6oJt5-49" value="" style="edgeStyle=elbowEdgeStyle;elbow=vertical;rounded=0;fontColor=#000000;endArrow=none;endFill=0;strokeWidth=8;strokeColor=#23445D;" edge="1" parent="1" source="yPEbqdjur7bi0oB6oJt5-8" target="yPEbqdjur7bi0oB6oJt5-25">
          <mxGeometry width="100" height="100" relative="1" as="geometry">
            <mxPoint x="-2073" y="469.9999999999998" as="sourcePoint" />
            <mxPoint x="-2173" y="540" as="targetPoint" />
          </mxGeometry>
        </mxCell>
        <mxCell id="yPEbqdjur7bi0oB6oJt5-50" value="" style="edgeStyle=elbowEdgeStyle;elbow=vertical;rounded=0;fontColor=#000000;endArrow=none;endFill=0;strokeWidth=8;strokeColor=#23445D;" edge="1" parent="1" source="yPEbqdjur7bi0oB6oJt5-8" target="yPEbqdjur7bi0oB6oJt5-26">
          <mxGeometry width="100" height="100" relative="1" as="geometry">
            <mxPoint x="-2073" y="469.9999999999998" as="sourcePoint" />
            <mxPoint x="-1973" y="540" as="targetPoint" />
          </mxGeometry>
        </mxCell>
        <mxCell id="yPEbqdjur7bi0oB6oJt5-51" value="" style="edgeStyle=elbowEdgeStyle;elbow=horizontal;rounded=0;fontColor=#000000;endArrow=none;endFill=0;strokeWidth=8;strokeColor=#23445D;" edge="1" parent="1" source="yPEbqdjur7bi0oB6oJt5-25" target="yPEbqdjur7bi0oB6oJt5-27">
          <mxGeometry width="100" height="100" relative="1" as="geometry">
            <mxPoint x="-1893" y="560.0000000000005" as="sourcePoint" />
            <mxPoint x="-1883.0000000000005" y="660" as="targetPoint" />
            <Array as="points">
              <mxPoint x="-1893" y="610" />
            </Array>
          </mxGeometry>
        </mxCell>
        <mxCell id="yPEbqdjur7bi0oB6oJt5-52" value="" style="edgeStyle=elbowEdgeStyle;elbow=horizontal;rounded=0;fontColor=#000000;endArrow=none;endFill=0;strokeWidth=8;strokeColor=#23445D;" edge="1" parent="1" source="yPEbqdjur7bi0oB6oJt5-25" target="yPEbqdjur7bi0oB6oJt5-28">
          <mxGeometry width="100" height="100" relative="1" as="geometry">
            <mxPoint x="-1883" y="560" as="sourcePoint" />
            <mxPoint x="-1883.0000000000002" y="740" as="targetPoint" />
            <Array as="points">
              <mxPoint x="-1893" y="650" />
            </Array>
          </mxGeometry>
        </mxCell>
        <mxCell id="yPEbqdjur7bi0oB6oJt5-53" value="" style="edgeStyle=elbowEdgeStyle;elbow=horizontal;rounded=0;fontColor=#000000;endArrow=none;endFill=0;strokeWidth=8;strokeColor=#23445D;" edge="1" parent="1" source="yPEbqdjur7bi0oB6oJt5-25" target="yPEbqdjur7bi0oB6oJt5-31">
          <mxGeometry width="100" height="100" relative="1" as="geometry">
            <mxPoint x="-1883" y="560" as="sourcePoint" />
            <mxPoint x="-1883" y="980" as="targetPoint" />
            <Array as="points">
              <mxPoint x="-1893" y="780" />
            </Array>
          </mxGeometry>
        </mxCell>
        <mxCell id="yPEbqdjur7bi0oB6oJt5-54" value="" style="edgeStyle=elbowEdgeStyle;elbow=horizontal;rounded=0;fontColor=#000000;endArrow=none;endFill=0;strokeWidth=8;strokeColor=#23445D;" edge="1" parent="1" source="yPEbqdjur7bi0oB6oJt5-25" target="yPEbqdjur7bi0oB6oJt5-30">
          <mxGeometry width="100" height="100" relative="1" as="geometry">
            <mxPoint x="-1883" y="560" as="sourcePoint" />
            <mxPoint x="-1883" y="900" as="targetPoint" />
            <Array as="points">
              <mxPoint x="-1893" y="730" />
            </Array>
          </mxGeometry>
        </mxCell>
        <mxCell id="yPEbqdjur7bi0oB6oJt5-55" value="" style="edgeStyle=elbowEdgeStyle;elbow=horizontal;rounded=0;fontColor=#000000;endArrow=none;endFill=0;strokeWidth=8;strokeColor=#23445D;" edge="1" parent="1" source="yPEbqdjur7bi0oB6oJt5-25" target="yPEbqdjur7bi0oB6oJt5-29">
          <mxGeometry width="100" height="100" relative="1" as="geometry">
            <mxPoint x="-1883" y="560" as="sourcePoint" />
            <mxPoint x="-1883.0000000000002" y="820" as="targetPoint" />
            <Array as="points">
              <mxPoint x="-1893" y="700" />
            </Array>
          </mxGeometry>
        </mxCell>
        <mxCell id="yPEbqdjur7bi0oB6oJt5-56" value="" style="edgeStyle=elbowEdgeStyle;elbow=horizontal;rounded=0;fontColor=#000000;endArrow=none;endFill=0;strokeWidth=8;strokeColor=#23445D;" edge="1" parent="1" source="yPEbqdjur7bi0oB6oJt5-26" target="yPEbqdjur7bi0oB6oJt5-32">
          <mxGeometry width="100" height="100" relative="1" as="geometry">
            <mxPoint x="-1703" y="560.0000000000005" as="sourcePoint" />
            <mxPoint x="-1693.0000000000005" y="660" as="targetPoint" />
            <Array as="points">
              <mxPoint x="-1693" y="610" />
            </Array>
          </mxGeometry>
        </mxCell>
        <mxCell id="yPEbqdjur7bi0oB6oJt5-57" value="" style="edgeStyle=elbowEdgeStyle;elbow=horizontal;rounded=0;fontColor=#000000;endArrow=none;endFill=0;strokeWidth=8;strokeColor=#23445D;" edge="1" parent="1" source="yPEbqdjur7bi0oB6oJt5-26" target="yPEbqdjur7bi0oB6oJt5-33">
          <mxGeometry width="100" height="100" relative="1" as="geometry">
            <mxPoint x="-1693" y="560" as="sourcePoint" />
            <mxPoint x="-1693.0000000000002" y="740" as="targetPoint" />
            <Array as="points">
              <mxPoint x="-1693" y="650" />
            </Array>
          </mxGeometry>
        </mxCell>
        <mxCell id="yPEbqdjur7bi0oB6oJt5-58" value="" style="edgeStyle=elbowEdgeStyle;elbow=horizontal;rounded=0;fontColor=#000000;endArrow=none;endFill=0;strokeWidth=8;strokeColor=#23445D;" edge="1" parent="1" source="yPEbqdjur7bi0oB6oJt5-26" target="yPEbqdjur7bi0oB6oJt5-36">
          <mxGeometry width="100" height="100" relative="1" as="geometry">
            <mxPoint x="-1693" y="560" as="sourcePoint" />
            <mxPoint x="-1693" y="980" as="targetPoint" />
            <Array as="points">
              <mxPoint x="-1693" y="770" />
            </Array>
          </mxGeometry>
        </mxCell>
        <mxCell id="yPEbqdjur7bi0oB6oJt5-59" value="" style="edgeStyle=elbowEdgeStyle;elbow=horizontal;rounded=0;fontColor=#000000;endArrow=none;endFill=0;strokeWidth=8;strokeColor=#23445D;" edge="1" parent="1" source="yPEbqdjur7bi0oB6oJt5-26" target="yPEbqdjur7bi0oB6oJt5-35">
          <mxGeometry width="100" height="100" relative="1" as="geometry">
            <mxPoint x="-1693" y="560" as="sourcePoint" />
            <mxPoint x="-1693" y="900" as="targetPoint" />
            <Array as="points">
              <mxPoint x="-1693" y="730" />
            </Array>
          </mxGeometry>
        </mxCell>
        <mxCell id="yPEbqdjur7bi0oB6oJt5-60" value="" style="edgeStyle=elbowEdgeStyle;elbow=horizontal;rounded=0;fontColor=#000000;endArrow=none;endFill=0;strokeWidth=8;strokeColor=#23445D;" edge="1" parent="1" source="yPEbqdjur7bi0oB6oJt5-26" target="yPEbqdjur7bi0oB6oJt5-34">
          <mxGeometry width="100" height="100" relative="1" as="geometry">
            <mxPoint x="-1693" y="560" as="sourcePoint" />
            <mxPoint x="-1693.0000000000002" y="820" as="targetPoint" />
            <Array as="points">
              <mxPoint x="-1693" y="700" />
            </Array>
          </mxGeometry>
        </mxCell>
        <mxCell id="yPEbqdjur7bi0oB6oJt5-61" value="SUB-TASK 1" style="whiteSpace=wrap;rounded=1;fillColor=#12AAB5;strokeColor=none;shadow=1;fontColor=#FFFFFF;" vertex="1" parent="1">
          <mxGeometry x="-1503.0000000000002" y="530.0000000000001" width="120" height="60" as="geometry" />
        </mxCell>
        <mxCell id="yPEbqdjur7bi0oB6oJt5-62" value="SUB-TASK 2" style="whiteSpace=wrap;rounded=1;fillColor=#12AAB5;strokeColor=none;shadow=1;fontColor=#FFFFFF;" vertex="1" parent="1">
          <mxGeometry x="-1303.0000000000002" y="530.0000000000001" width="120" height="60" as="geometry" />
        </mxCell>
        <mxCell id="yPEbqdjur7bi0oB6oJt5-63" value="WORK&#xa;PACKAGE 1" style="whiteSpace=wrap;rounded=1;fillColor=#999999;strokeColor=none;shadow=1;fontColor=#FFFFFF;fontStyle=0" vertex="1" parent="1">
          <mxGeometry x="-1503.0000000000002" y="630" width="120" height="60" as="geometry" />
        </mxCell>
        <mxCell id="yPEbqdjur7bi0oB6oJt5-64" value="WORK&#xa;PACKAGE 2" style="whiteSpace=wrap;rounded=1;fillColor=#999999;strokeColor=none;shadow=1;fontColor=#FFFFFF;fontStyle=0" vertex="1" parent="1">
          <mxGeometry x="-1503" y="710" width="120" height="60" as="geometry" />
        </mxCell>
        <mxCell id="yPEbqdjur7bi0oB6oJt5-65" value="WORK&#xa;PACKAGE 3" style="whiteSpace=wrap;rounded=1;fillColor=#999999;strokeColor=none;shadow=1;fontColor=#FFFFFF;fontStyle=0" vertex="1" parent="1">
          <mxGeometry x="-1503.0000000000002" y="790" width="120" height="60" as="geometry" />
        </mxCell>
        <mxCell id="yPEbqdjur7bi0oB6oJt5-66" value="WORK&#xa;PACKAGE 4" style="whiteSpace=wrap;rounded=1;fillColor=#999999;strokeColor=none;shadow=1;fontColor=#FFFFFF;fontStyle=0" vertex="1" parent="1">
          <mxGeometry x="-1503" y="870" width="120" height="60" as="geometry" />
        </mxCell>
        <mxCell id="yPEbqdjur7bi0oB6oJt5-67" value="WORK&#xa;PACKAGE 5" style="whiteSpace=wrap;rounded=1;fillColor=#999999;strokeColor=none;shadow=1;fontColor=#FFFFFF;fontStyle=0" vertex="1" parent="1">
          <mxGeometry x="-1503" y="950" width="120" height="60" as="geometry" />
        </mxCell>
        <mxCell id="yPEbqdjur7bi0oB6oJt5-68" value="WORK&#xa;PACKAGE 1" style="whiteSpace=wrap;rounded=1;fillColor=#999999;strokeColor=none;shadow=1;fontColor=#FFFFFF;fontStyle=0" vertex="1" parent="1">
          <mxGeometry x="-1303.0000000000007" y="630" width="120" height="60" as="geometry" />
        </mxCell>
        <mxCell id="yPEbqdjur7bi0oB6oJt5-69" value="WORK&#xa;PACKAGE 2" style="whiteSpace=wrap;rounded=1;fillColor=#999999;strokeColor=none;shadow=1;fontColor=#FFFFFF;fontStyle=0" vertex="1" parent="1">
          <mxGeometry x="-1303.0000000000005" y="710" width="120" height="60" as="geometry" />
        </mxCell>
        <mxCell id="yPEbqdjur7bi0oB6oJt5-70" value="WORK&#xa;PACKAGE 3" style="whiteSpace=wrap;rounded=1;fillColor=#999999;strokeColor=none;shadow=1;fontColor=#FFFFFF;fontStyle=0" vertex="1" parent="1">
          <mxGeometry x="-1303.0000000000005" y="790" width="120" height="60" as="geometry" />
        </mxCell>
        <mxCell id="yPEbqdjur7bi0oB6oJt5-71" value="WORK&#xa;PACKAGE 4" style="whiteSpace=wrap;rounded=1;fillColor=#999999;strokeColor=none;shadow=1;fontColor=#FFFFFF;fontStyle=0" vertex="1" parent="1">
          <mxGeometry x="-1303.0000000000005" y="870" width="120" height="60" as="geometry" />
        </mxCell>
        <mxCell id="yPEbqdjur7bi0oB6oJt5-72" value="WORK&#xa;PACKAGE 5" style="whiteSpace=wrap;rounded=1;fillColor=#999999;strokeColor=none;shadow=1;fontColor=#FFFFFF;fontStyle=0" vertex="1" parent="1">
          <mxGeometry x="-1303.0000000000002" y="950" width="120" height="60" as="geometry" />
        </mxCell>
        <mxCell id="yPEbqdjur7bi0oB6oJt5-73" value="" style="edgeStyle=elbowEdgeStyle;elbow=horizontal;rounded=0;fontColor=#000000;endArrow=none;endFill=0;strokeWidth=8;strokeColor=#23445D;" edge="1" parent="1" source="yPEbqdjur7bi0oB6oJt5-61" target="yPEbqdjur7bi0oB6oJt5-63">
          <mxGeometry width="100" height="100" relative="1" as="geometry">
            <mxPoint x="-1523" y="560.0000000000005" as="sourcePoint" />
            <mxPoint x="-1513.0000000000005" y="660" as="targetPoint" />
            <Array as="points">
              <mxPoint x="-1523" y="610" />
            </Array>
          </mxGeometry>
        </mxCell>
        <mxCell id="yPEbqdjur7bi0oB6oJt5-74" value="" style="edgeStyle=elbowEdgeStyle;elbow=horizontal;rounded=0;fontColor=#000000;endArrow=none;endFill=0;strokeWidth=8;strokeColor=#23445D;" edge="1" parent="1" source="yPEbqdjur7bi0oB6oJt5-61" target="yPEbqdjur7bi0oB6oJt5-64">
          <mxGeometry width="100" height="100" relative="1" as="geometry">
            <mxPoint x="-1513" y="560" as="sourcePoint" />
            <mxPoint x="-1513.0000000000002" y="740" as="targetPoint" />
            <Array as="points">
              <mxPoint x="-1523" y="650" />
            </Array>
          </mxGeometry>
        </mxCell>
        <mxCell id="yPEbqdjur7bi0oB6oJt5-75" value="" style="edgeStyle=elbowEdgeStyle;elbow=horizontal;rounded=0;fontColor=#000000;endArrow=none;endFill=0;strokeWidth=8;strokeColor=#23445D;" edge="1" parent="1" source="yPEbqdjur7bi0oB6oJt5-61" target="yPEbqdjur7bi0oB6oJt5-67">
          <mxGeometry width="100" height="100" relative="1" as="geometry">
            <mxPoint x="-1513" y="560" as="sourcePoint" />
            <mxPoint x="-1513" y="980" as="targetPoint" />
            <Array as="points">
              <mxPoint x="-1523" y="780" />
            </Array>
          </mxGeometry>
        </mxCell>
        <mxCell id="yPEbqdjur7bi0oB6oJt5-76" value="" style="edgeStyle=elbowEdgeStyle;elbow=horizontal;rounded=0;fontColor=#000000;endArrow=none;endFill=0;strokeWidth=8;strokeColor=#23445D;" edge="1" parent="1" source="yPEbqdjur7bi0oB6oJt5-61" target="yPEbqdjur7bi0oB6oJt5-66">
          <mxGeometry width="100" height="100" relative="1" as="geometry">
            <mxPoint x="-1513" y="560" as="sourcePoint" />
            <mxPoint x="-1513" y="900" as="targetPoint" />
            <Array as="points">
              <mxPoint x="-1523" y="730" />
            </Array>
          </mxGeometry>
        </mxCell>
        <mxCell id="yPEbqdjur7bi0oB6oJt5-77" value="" style="edgeStyle=elbowEdgeStyle;elbow=horizontal;rounded=0;fontColor=#000000;endArrow=none;endFill=0;strokeWidth=8;strokeColor=#23445D;" edge="1" parent="1" source="yPEbqdjur7bi0oB6oJt5-61" target="yPEbqdjur7bi0oB6oJt5-65">
          <mxGeometry width="100" height="100" relative="1" as="geometry">
            <mxPoint x="-1513" y="560" as="sourcePoint" />
            <mxPoint x="-1513.0000000000002" y="820" as="targetPoint" />
            <Array as="points">
              <mxPoint x="-1523" y="700" />
            </Array>
          </mxGeometry>
        </mxCell>
        <mxCell id="yPEbqdjur7bi0oB6oJt5-78" value="" style="edgeStyle=elbowEdgeStyle;elbow=horizontal;rounded=0;fontColor=#000000;endArrow=none;endFill=0;strokeWidth=8;strokeColor=#23445D;" edge="1" parent="1" source="yPEbqdjur7bi0oB6oJt5-62" target="yPEbqdjur7bi0oB6oJt5-68">
          <mxGeometry width="100" height="100" relative="1" as="geometry">
            <mxPoint x="-1333" y="560.0000000000005" as="sourcePoint" />
            <mxPoint x="-1323.0000000000005" y="660" as="targetPoint" />
            <Array as="points">
              <mxPoint x="-1323" y="610" />
            </Array>
          </mxGeometry>
        </mxCell>
        <mxCell id="yPEbqdjur7bi0oB6oJt5-79" value="" style="edgeStyle=elbowEdgeStyle;elbow=horizontal;rounded=0;fontColor=#000000;endArrow=none;endFill=0;strokeWidth=8;strokeColor=#23445D;" edge="1" parent="1" source="yPEbqdjur7bi0oB6oJt5-62" target="yPEbqdjur7bi0oB6oJt5-69">
          <mxGeometry width="100" height="100" relative="1" as="geometry">
            <mxPoint x="-1323" y="560" as="sourcePoint" />
            <mxPoint x="-1323.0000000000002" y="740" as="targetPoint" />
            <Array as="points">
              <mxPoint x="-1323" y="650" />
            </Array>
          </mxGeometry>
        </mxCell>
        <mxCell id="yPEbqdjur7bi0oB6oJt5-80" value="" style="edgeStyle=elbowEdgeStyle;elbow=horizontal;rounded=0;fontColor=#000000;endArrow=none;endFill=0;strokeWidth=8;strokeColor=#23445D;" edge="1" parent="1" source="yPEbqdjur7bi0oB6oJt5-62" target="yPEbqdjur7bi0oB6oJt5-72">
          <mxGeometry width="100" height="100" relative="1" as="geometry">
            <mxPoint x="-1323" y="560" as="sourcePoint" />
            <mxPoint x="-1323" y="980" as="targetPoint" />
            <Array as="points">
              <mxPoint x="-1323" y="770" />
            </Array>
          </mxGeometry>
        </mxCell>
        <mxCell id="yPEbqdjur7bi0oB6oJt5-81" value="" style="edgeStyle=elbowEdgeStyle;elbow=horizontal;rounded=0;fontColor=#000000;endArrow=none;endFill=0;strokeWidth=8;strokeColor=#23445D;" edge="1" parent="1" source="yPEbqdjur7bi0oB6oJt5-62" target="yPEbqdjur7bi0oB6oJt5-71">
          <mxGeometry width="100" height="100" relative="1" as="geometry">
            <mxPoint x="-1323" y="560" as="sourcePoint" />
            <mxPoint x="-1323" y="900" as="targetPoint" />
            <Array as="points">
              <mxPoint x="-1323" y="730" />
            </Array>
          </mxGeometry>
        </mxCell>
        <mxCell id="yPEbqdjur7bi0oB6oJt5-82" value="" style="edgeStyle=elbowEdgeStyle;elbow=horizontal;rounded=0;fontColor=#000000;endArrow=none;endFill=0;strokeWidth=8;strokeColor=#23445D;" edge="1" parent="1" source="yPEbqdjur7bi0oB6oJt5-62" target="yPEbqdjur7bi0oB6oJt5-70">
          <mxGeometry width="100" height="100" relative="1" as="geometry">
            <mxPoint x="-1323" y="560" as="sourcePoint" />
            <mxPoint x="-1323.0000000000002" y="820" as="targetPoint" />
            <Array as="points">
              <mxPoint x="-1323" y="700" />
            </Array>
          </mxGeometry>
        </mxCell>
        <mxCell id="yPEbqdjur7bi0oB6oJt5-83" value="SUB-TASK 1" style="whiteSpace=wrap;rounded=1;fillColor=#12AAB5;strokeColor=none;shadow=1;fontColor=#FFFFFF;" vertex="1" parent="1">
          <mxGeometry x="-1133.0000000000002" y="530.0000000000002" width="120" height="60" as="geometry" />
        </mxCell>
        <mxCell id="yPEbqdjur7bi0oB6oJt5-84" value="SUB-TASK 2" style="whiteSpace=wrap;rounded=1;fillColor=#12AAB5;strokeColor=none;shadow=1;fontColor=#FFFFFF;" vertex="1" parent="1">
          <mxGeometry x="-933.0000000000002" y="530.0000000000002" width="120" height="60" as="geometry" />
        </mxCell>
        <mxCell id="yPEbqdjur7bi0oB6oJt5-85" value="WORK&#xa;PACKAGE 1" style="whiteSpace=wrap;rounded=1;fillColor=#999999;strokeColor=none;shadow=1;fontColor=#FFFFFF;fontStyle=0" vertex="1" parent="1">
          <mxGeometry x="-1133.0000000000002" y="630.0000000000002" width="120" height="60" as="geometry" />
        </mxCell>
        <mxCell id="yPEbqdjur7bi0oB6oJt5-86" value="WORK&#xa;PACKAGE 2" style="whiteSpace=wrap;rounded=1;fillColor=#999999;strokeColor=none;shadow=1;fontColor=#FFFFFF;fontStyle=0" vertex="1" parent="1">
          <mxGeometry x="-1133" y="710.0000000000002" width="120" height="60" as="geometry" />
        </mxCell>
        <mxCell id="yPEbqdjur7bi0oB6oJt5-87" value="WORK&#xa;PACKAGE 3" style="whiteSpace=wrap;rounded=1;fillColor=#999999;strokeColor=none;shadow=1;fontColor=#FFFFFF;fontStyle=0" vertex="1" parent="1">
          <mxGeometry x="-1133.0000000000002" y="790.0000000000002" width="120" height="60" as="geometry" />
        </mxCell>
        <mxCell id="yPEbqdjur7bi0oB6oJt5-88" value="WORK&#xa;PACKAGE 4" style="whiteSpace=wrap;rounded=1;fillColor=#999999;strokeColor=none;shadow=1;fontColor=#FFFFFF;fontStyle=0" vertex="1" parent="1">
          <mxGeometry x="-1133" y="870.0000000000002" width="120" height="60" as="geometry" />
        </mxCell>
        <mxCell id="yPEbqdjur7bi0oB6oJt5-89" value="WORK&#xa;PACKAGE 5" style="whiteSpace=wrap;rounded=1;fillColor=#999999;strokeColor=none;shadow=1;fontColor=#FFFFFF;fontStyle=0" vertex="1" parent="1">
          <mxGeometry x="-1133" y="950.0000000000002" width="120" height="60" as="geometry" />
        </mxCell>
        <mxCell id="yPEbqdjur7bi0oB6oJt5-90" value="WORK&#xa;PACKAGE 1" style="whiteSpace=wrap;rounded=1;fillColor=#999999;strokeColor=none;shadow=1;fontColor=#FFFFFF;fontStyle=0" vertex="1" parent="1">
          <mxGeometry x="-933.0000000000007" y="630.0000000000002" width="120" height="60" as="geometry" />
        </mxCell>
        <mxCell id="yPEbqdjur7bi0oB6oJt5-91" value="WORK&#xa;PACKAGE 2" style="whiteSpace=wrap;rounded=1;fillColor=#999999;strokeColor=none;shadow=1;fontColor=#FFFFFF;fontStyle=0" vertex="1" parent="1">
          <mxGeometry x="-933.0000000000005" y="710.0000000000002" width="120" height="60" as="geometry" />
        </mxCell>
        <mxCell id="yPEbqdjur7bi0oB6oJt5-92" value="WORK&#xa;PACKAGE 3" style="whiteSpace=wrap;rounded=1;fillColor=#999999;strokeColor=none;shadow=1;fontColor=#FFFFFF;fontStyle=0" vertex="1" parent="1">
          <mxGeometry x="-933.0000000000005" y="790.0000000000002" width="120" height="60" as="geometry" />
        </mxCell>
        <mxCell id="yPEbqdjur7bi0oB6oJt5-93" value="WORK&#xa;PACKAGE 4" style="whiteSpace=wrap;rounded=1;fillColor=#999999;strokeColor=none;shadow=1;fontColor=#FFFFFF;fontStyle=0" vertex="1" parent="1">
          <mxGeometry x="-933.0000000000005" y="870.0000000000002" width="120" height="60" as="geometry" />
        </mxCell>
        <mxCell id="yPEbqdjur7bi0oB6oJt5-94" value="WORK&#xa;PACKAGE 5" style="whiteSpace=wrap;rounded=1;fillColor=#999999;strokeColor=none;shadow=1;fontColor=#FFFFFF;fontStyle=0" vertex="1" parent="1">
          <mxGeometry x="-933.0000000000002" y="950.0000000000002" width="120" height="60" as="geometry" />
        </mxCell>
        <mxCell id="yPEbqdjur7bi0oB6oJt5-95" value="" style="edgeStyle=elbowEdgeStyle;elbow=horizontal;rounded=0;fontColor=#000000;endArrow=none;endFill=0;strokeWidth=8;strokeColor=#23445D;" edge="1" parent="1" source="yPEbqdjur7bi0oB6oJt5-83" target="yPEbqdjur7bi0oB6oJt5-85">
          <mxGeometry width="100" height="100" relative="1" as="geometry">
            <mxPoint x="-1153" y="560.0000000000005" as="sourcePoint" />
            <mxPoint x="-1143.0000000000005" y="660" as="targetPoint" />
            <Array as="points">
              <mxPoint x="-1153" y="610" />
            </Array>
          </mxGeometry>
        </mxCell>
        <mxCell id="yPEbqdjur7bi0oB6oJt5-96" value="" style="edgeStyle=elbowEdgeStyle;elbow=horizontal;rounded=0;fontColor=#000000;endArrow=none;endFill=0;strokeWidth=8;strokeColor=#23445D;" edge="1" parent="1" source="yPEbqdjur7bi0oB6oJt5-83" target="yPEbqdjur7bi0oB6oJt5-86">
          <mxGeometry width="100" height="100" relative="1" as="geometry">
            <mxPoint x="-1143" y="560" as="sourcePoint" />
            <mxPoint x="-1143.0000000000002" y="740" as="targetPoint" />
            <Array as="points">
              <mxPoint x="-1153" y="650" />
            </Array>
          </mxGeometry>
        </mxCell>
        <mxCell id="yPEbqdjur7bi0oB6oJt5-97" value="" style="edgeStyle=elbowEdgeStyle;elbow=horizontal;rounded=0;fontColor=#000000;endArrow=none;endFill=0;strokeWidth=8;strokeColor=#23445D;" edge="1" parent="1" source="yPEbqdjur7bi0oB6oJt5-83" target="yPEbqdjur7bi0oB6oJt5-89">
          <mxGeometry width="100" height="100" relative="1" as="geometry">
            <mxPoint x="-1143" y="560" as="sourcePoint" />
            <mxPoint x="-1143" y="980" as="targetPoint" />
            <Array as="points">
              <mxPoint x="-1153" y="780" />
            </Array>
          </mxGeometry>
        </mxCell>
        <mxCell id="yPEbqdjur7bi0oB6oJt5-98" value="" style="edgeStyle=elbowEdgeStyle;elbow=horizontal;rounded=0;fontColor=#000000;endArrow=none;endFill=0;strokeWidth=8;strokeColor=#23445D;" edge="1" parent="1" source="yPEbqdjur7bi0oB6oJt5-83" target="yPEbqdjur7bi0oB6oJt5-88">
          <mxGeometry width="100" height="100" relative="1" as="geometry">
            <mxPoint x="-1143" y="560" as="sourcePoint" />
            <mxPoint x="-1143" y="900" as="targetPoint" />
            <Array as="points">
              <mxPoint x="-1153" y="730" />
            </Array>
          </mxGeometry>
        </mxCell>
        <mxCell id="yPEbqdjur7bi0oB6oJt5-99" value="" style="edgeStyle=elbowEdgeStyle;elbow=horizontal;rounded=0;fontColor=#000000;endArrow=none;endFill=0;strokeWidth=8;strokeColor=#23445D;" edge="1" parent="1" source="yPEbqdjur7bi0oB6oJt5-83" target="yPEbqdjur7bi0oB6oJt5-87">
          <mxGeometry width="100" height="100" relative="1" as="geometry">
            <mxPoint x="-1143" y="560" as="sourcePoint" />
            <mxPoint x="-1143.0000000000002" y="820" as="targetPoint" />
            <Array as="points">
              <mxPoint x="-1153" y="700" />
            </Array>
          </mxGeometry>
        </mxCell>
        <mxCell id="yPEbqdjur7bi0oB6oJt5-100" value="" style="edgeStyle=elbowEdgeStyle;elbow=horizontal;rounded=0;fontColor=#000000;endArrow=none;endFill=0;strokeWidth=8;strokeColor=#23445D;" edge="1" parent="1" source="yPEbqdjur7bi0oB6oJt5-84" target="yPEbqdjur7bi0oB6oJt5-90">
          <mxGeometry width="100" height="100" relative="1" as="geometry">
            <mxPoint x="-963" y="560.0000000000005" as="sourcePoint" />
            <mxPoint x="-953.0000000000005" y="660" as="targetPoint" />
            <Array as="points">
              <mxPoint x="-953" y="610" />
            </Array>
          </mxGeometry>
        </mxCell>
        <mxCell id="yPEbqdjur7bi0oB6oJt5-101" value="" style="edgeStyle=elbowEdgeStyle;elbow=horizontal;rounded=0;fontColor=#000000;endArrow=none;endFill=0;strokeWidth=8;strokeColor=#23445D;" edge="1" parent="1" source="yPEbqdjur7bi0oB6oJt5-84" target="yPEbqdjur7bi0oB6oJt5-91">
          <mxGeometry width="100" height="100" relative="1" as="geometry">
            <mxPoint x="-953" y="560" as="sourcePoint" />
            <mxPoint x="-953.0000000000002" y="740" as="targetPoint" />
            <Array as="points">
              <mxPoint x="-953" y="650" />
            </Array>
          </mxGeometry>
        </mxCell>
        <mxCell id="yPEbqdjur7bi0oB6oJt5-102" value="" style="edgeStyle=elbowEdgeStyle;elbow=horizontal;rounded=0;fontColor=#000000;endArrow=none;endFill=0;strokeWidth=8;strokeColor=#23445D;" edge="1" parent="1" source="yPEbqdjur7bi0oB6oJt5-84" target="yPEbqdjur7bi0oB6oJt5-94">
          <mxGeometry width="100" height="100" relative="1" as="geometry">
            <mxPoint x="-953" y="560" as="sourcePoint" />
            <mxPoint x="-953" y="980" as="targetPoint" />
            <Array as="points">
              <mxPoint x="-953" y="770" />
            </Array>
          </mxGeometry>
        </mxCell>
        <mxCell id="yPEbqdjur7bi0oB6oJt5-103" value="" style="edgeStyle=elbowEdgeStyle;elbow=horizontal;rounded=0;fontColor=#000000;endArrow=none;endFill=0;strokeWidth=8;strokeColor=#23445D;" edge="1" parent="1" source="yPEbqdjur7bi0oB6oJt5-84" target="yPEbqdjur7bi0oB6oJt5-93">
          <mxGeometry width="100" height="100" relative="1" as="geometry">
            <mxPoint x="-953" y="560" as="sourcePoint" />
            <mxPoint x="-953" y="900" as="targetPoint" />
            <Array as="points">
              <mxPoint x="-953" y="730" />
            </Array>
          </mxGeometry>
        </mxCell>
        <mxCell id="yPEbqdjur7bi0oB6oJt5-104" value="" style="edgeStyle=elbowEdgeStyle;elbow=horizontal;rounded=0;fontColor=#000000;endArrow=none;endFill=0;strokeWidth=8;strokeColor=#23445D;" edge="1" parent="1" source="yPEbqdjur7bi0oB6oJt5-84" target="yPEbqdjur7bi0oB6oJt5-92">
          <mxGeometry width="100" height="100" relative="1" as="geometry">
            <mxPoint x="-953" y="560" as="sourcePoint" />
            <mxPoint x="-953.0000000000002" y="820" as="targetPoint" />
            <Array as="points">
              <mxPoint x="-953" y="700" />
            </Array>
          </mxGeometry>
        </mxCell>
        <mxCell id="yPEbqdjur7bi0oB6oJt5-105" value="SUB-TASK 1" style="whiteSpace=wrap;rounded=1;fillColor=#12AAB5;strokeColor=none;shadow=1;fontColor=#FFFFFF;" vertex="1" parent="1">
          <mxGeometry x="-763.0000000000002" y="529.9999999999999" width="120" height="60" as="geometry" />
        </mxCell>
        <mxCell id="yPEbqdjur7bi0oB6oJt5-106" value="SUB-TASK 2" style="whiteSpace=wrap;rounded=1;fillColor=#12AAB5;strokeColor=none;shadow=1;fontColor=#FFFFFF;" vertex="1" parent="1">
          <mxGeometry x="-563.0000000000002" y="529.9999999999999" width="120" height="60" as="geometry" />
        </mxCell>
        <mxCell id="yPEbqdjur7bi0oB6oJt5-107" value="WORK&#xa;PACKAGE 1" style="whiteSpace=wrap;rounded=1;fillColor=#999999;strokeColor=none;shadow=1;fontColor=#FFFFFF;fontStyle=0" vertex="1" parent="1">
          <mxGeometry x="-763.0000000000002" y="630" width="120" height="60" as="geometry" />
        </mxCell>
        <mxCell id="yPEbqdjur7bi0oB6oJt5-108" value="WORK&#xa;PACKAGE 2" style="whiteSpace=wrap;rounded=1;fillColor=#999999;strokeColor=none;shadow=1;fontColor=#FFFFFF;fontStyle=0" vertex="1" parent="1">
          <mxGeometry x="-763" y="710" width="120" height="60" as="geometry" />
        </mxCell>
        <mxCell id="yPEbqdjur7bi0oB6oJt5-109" value="WORK&#xa;PACKAGE 3" style="whiteSpace=wrap;rounded=1;fillColor=#999999;strokeColor=none;shadow=1;fontColor=#FFFFFF;fontStyle=0" vertex="1" parent="1">
          <mxGeometry x="-763.0000000000002" y="790" width="120" height="60" as="geometry" />
        </mxCell>
        <mxCell id="yPEbqdjur7bi0oB6oJt5-110" value="WORK&#xa;PACKAGE 4" style="whiteSpace=wrap;rounded=1;fillColor=#999999;strokeColor=none;shadow=1;fontColor=#FFFFFF;fontStyle=0" vertex="1" parent="1">
          <mxGeometry x="-763" y="870" width="120" height="60" as="geometry" />
        </mxCell>
        <mxCell id="yPEbqdjur7bi0oB6oJt5-111" value="WORK&#xa;PACKAGE 5" style="whiteSpace=wrap;rounded=1;fillColor=#999999;strokeColor=none;shadow=1;fontColor=#FFFFFF;fontStyle=0" vertex="1" parent="1">
          <mxGeometry x="-763" y="950" width="120" height="60" as="geometry" />
        </mxCell>
        <mxCell id="yPEbqdjur7bi0oB6oJt5-112" value="WORK&#xa;PACKAGE 1" style="whiteSpace=wrap;rounded=1;fillColor=#999999;strokeColor=none;shadow=1;fontColor=#FFFFFF;fontStyle=0" vertex="1" parent="1">
          <mxGeometry x="-563.0000000000007" y="630" width="120" height="60" as="geometry" />
        </mxCell>
        <mxCell id="yPEbqdjur7bi0oB6oJt5-113" value="WORK&#xa;PACKAGE 2" style="whiteSpace=wrap;rounded=1;fillColor=#999999;strokeColor=none;shadow=1;fontColor=#FFFFFF;fontStyle=0" vertex="1" parent="1">
          <mxGeometry x="-563.0000000000005" y="710" width="120" height="60" as="geometry" />
        </mxCell>
        <mxCell id="yPEbqdjur7bi0oB6oJt5-114" value="WORK&#xa;PACKAGE 3" style="whiteSpace=wrap;rounded=1;fillColor=#999999;strokeColor=none;shadow=1;fontColor=#FFFFFF;fontStyle=0" vertex="1" parent="1">
          <mxGeometry x="-563.0000000000005" y="790" width="120" height="60" as="geometry" />
        </mxCell>
        <mxCell id="yPEbqdjur7bi0oB6oJt5-115" value="WORK&#xa;PACKAGE 4" style="whiteSpace=wrap;rounded=1;fillColor=#999999;strokeColor=none;shadow=1;fontColor=#FFFFFF;fontStyle=0" vertex="1" parent="1">
          <mxGeometry x="-563.0000000000005" y="870" width="120" height="60" as="geometry" />
        </mxCell>
        <mxCell id="yPEbqdjur7bi0oB6oJt5-116" value="WORK&#xa;PACKAGE 5" style="whiteSpace=wrap;rounded=1;fillColor=#999999;strokeColor=none;shadow=1;fontColor=#FFFFFF;fontStyle=0" vertex="1" parent="1">
          <mxGeometry x="-563.0000000000002" y="950" width="120" height="60" as="geometry" />
        </mxCell>
        <mxCell id="yPEbqdjur7bi0oB6oJt5-117" value="" style="edgeStyle=elbowEdgeStyle;elbow=horizontal;rounded=0;fontColor=#000000;endArrow=none;endFill=0;strokeWidth=8;strokeColor=#23445D;" edge="1" parent="1" source="yPEbqdjur7bi0oB6oJt5-105" target="yPEbqdjur7bi0oB6oJt5-107">
          <mxGeometry width="100" height="100" relative="1" as="geometry">
            <mxPoint x="-783" y="560.0000000000002" as="sourcePoint" />
            <mxPoint x="-773.0000000000005" y="659.9999999999998" as="targetPoint" />
            <Array as="points">
              <mxPoint x="-783" y="609.9999999999998" />
            </Array>
          </mxGeometry>
        </mxCell>
        <mxCell id="yPEbqdjur7bi0oB6oJt5-118" value="" style="edgeStyle=elbowEdgeStyle;elbow=horizontal;rounded=0;fontColor=#000000;endArrow=none;endFill=0;strokeWidth=8;strokeColor=#23445D;" edge="1" parent="1" source="yPEbqdjur7bi0oB6oJt5-105" target="yPEbqdjur7bi0oB6oJt5-108">
          <mxGeometry width="100" height="100" relative="1" as="geometry">
            <mxPoint x="-773" y="559.9999999999998" as="sourcePoint" />
            <mxPoint x="-773.0000000000002" y="739.9999999999998" as="targetPoint" />
            <Array as="points">
              <mxPoint x="-783" y="649.9999999999998" />
            </Array>
          </mxGeometry>
        </mxCell>
        <mxCell id="yPEbqdjur7bi0oB6oJt5-119" value="" style="edgeStyle=elbowEdgeStyle;elbow=horizontal;rounded=0;fontColor=#000000;endArrow=none;endFill=0;strokeWidth=8;strokeColor=#23445D;" edge="1" parent="1" source="yPEbqdjur7bi0oB6oJt5-105" target="yPEbqdjur7bi0oB6oJt5-111">
          <mxGeometry width="100" height="100" relative="1" as="geometry">
            <mxPoint x="-773" y="559.9999999999998" as="sourcePoint" />
            <mxPoint x="-773" y="979.9999999999998" as="targetPoint" />
            <Array as="points">
              <mxPoint x="-783" y="779.9999999999998" />
            </Array>
          </mxGeometry>
        </mxCell>
        <mxCell id="yPEbqdjur7bi0oB6oJt5-120" value="" style="edgeStyle=elbowEdgeStyle;elbow=horizontal;rounded=0;fontColor=#000000;endArrow=none;endFill=0;strokeWidth=8;strokeColor=#23445D;" edge="1" parent="1" source="yPEbqdjur7bi0oB6oJt5-105" target="yPEbqdjur7bi0oB6oJt5-110">
          <mxGeometry width="100" height="100" relative="1" as="geometry">
            <mxPoint x="-773" y="559.9999999999998" as="sourcePoint" />
            <mxPoint x="-773" y="899.9999999999998" as="targetPoint" />
            <Array as="points">
              <mxPoint x="-783" y="729.9999999999998" />
            </Array>
          </mxGeometry>
        </mxCell>
        <mxCell id="yPEbqdjur7bi0oB6oJt5-121" value="" style="edgeStyle=elbowEdgeStyle;elbow=horizontal;rounded=0;fontColor=#000000;endArrow=none;endFill=0;strokeWidth=8;strokeColor=#23445D;" edge="1" parent="1" source="yPEbqdjur7bi0oB6oJt5-105" target="yPEbqdjur7bi0oB6oJt5-109">
          <mxGeometry width="100" height="100" relative="1" as="geometry">
            <mxPoint x="-773" y="559.9999999999998" as="sourcePoint" />
            <mxPoint x="-773.0000000000002" y="819.9999999999998" as="targetPoint" />
            <Array as="points">
              <mxPoint x="-783" y="699.9999999999998" />
            </Array>
          </mxGeometry>
        </mxCell>
        <mxCell id="yPEbqdjur7bi0oB6oJt5-122" value="" style="edgeStyle=elbowEdgeStyle;elbow=horizontal;rounded=0;fontColor=#000000;endArrow=none;endFill=0;strokeWidth=8;strokeColor=#23445D;" edge="1" parent="1" source="yPEbqdjur7bi0oB6oJt5-106" target="yPEbqdjur7bi0oB6oJt5-112">
          <mxGeometry width="100" height="100" relative="1" as="geometry">
            <mxPoint x="-593" y="560.0000000000002" as="sourcePoint" />
            <mxPoint x="-583.0000000000005" y="659.9999999999998" as="targetPoint" />
            <Array as="points">
              <mxPoint x="-583" y="609.9999999999998" />
            </Array>
          </mxGeometry>
        </mxCell>
        <mxCell id="yPEbqdjur7bi0oB6oJt5-123" value="" style="edgeStyle=elbowEdgeStyle;elbow=horizontal;rounded=0;fontColor=#000000;endArrow=none;endFill=0;strokeWidth=8;strokeColor=#23445D;" edge="1" parent="1" source="yPEbqdjur7bi0oB6oJt5-106" target="yPEbqdjur7bi0oB6oJt5-113">
          <mxGeometry width="100" height="100" relative="1" as="geometry">
            <mxPoint x="-583" y="559.9999999999998" as="sourcePoint" />
            <mxPoint x="-583.0000000000002" y="739.9999999999998" as="targetPoint" />
            <Array as="points">
              <mxPoint x="-583" y="649.9999999999998" />
            </Array>
          </mxGeometry>
        </mxCell>
        <mxCell id="yPEbqdjur7bi0oB6oJt5-124" value="" style="edgeStyle=elbowEdgeStyle;elbow=horizontal;rounded=0;fontColor=#000000;endArrow=none;endFill=0;strokeWidth=8;strokeColor=#23445D;" edge="1" parent="1" source="yPEbqdjur7bi0oB6oJt5-106" target="yPEbqdjur7bi0oB6oJt5-116">
          <mxGeometry width="100" height="100" relative="1" as="geometry">
            <mxPoint x="-583" y="559.9999999999998" as="sourcePoint" />
            <mxPoint x="-583" y="979.9999999999998" as="targetPoint" />
            <Array as="points">
              <mxPoint x="-583" y="769.9999999999998" />
            </Array>
          </mxGeometry>
        </mxCell>
        <mxCell id="yPEbqdjur7bi0oB6oJt5-125" value="" style="edgeStyle=elbowEdgeStyle;elbow=horizontal;rounded=0;fontColor=#000000;endArrow=none;endFill=0;strokeWidth=8;strokeColor=#23445D;" edge="1" parent="1" source="yPEbqdjur7bi0oB6oJt5-106" target="yPEbqdjur7bi0oB6oJt5-115">
          <mxGeometry width="100" height="100" relative="1" as="geometry">
            <mxPoint x="-583" y="559.9999999999998" as="sourcePoint" />
            <mxPoint x="-583" y="899.9999999999998" as="targetPoint" />
            <Array as="points">
              <mxPoint x="-583" y="729.9999999999998" />
            </Array>
          </mxGeometry>
        </mxCell>
        <mxCell id="yPEbqdjur7bi0oB6oJt5-126" value="" style="edgeStyle=elbowEdgeStyle;elbow=horizontal;rounded=0;fontColor=#000000;endArrow=none;endFill=0;strokeWidth=8;strokeColor=#23445D;" edge="1" parent="1" source="yPEbqdjur7bi0oB6oJt5-106" target="yPEbqdjur7bi0oB6oJt5-114">
          <mxGeometry width="100" height="100" relative="1" as="geometry">
            <mxPoint x="-583" y="559.9999999999998" as="sourcePoint" />
            <mxPoint x="-583.0000000000002" y="819.9999999999998" as="targetPoint" />
            <Array as="points">
              <mxPoint x="-583" y="699.9999999999998" />
            </Array>
          </mxGeometry>
        </mxCell>
        <mxCell id="yPEbqdjur7bi0oB6oJt5-127" value="SUB-TASK 1" style="whiteSpace=wrap;rounded=1;fillColor=#12AAB5;strokeColor=none;shadow=1;fontColor=#FFFFFF;" vertex="1" parent="1">
          <mxGeometry x="-393.0000000000002" y="529.9999999999998" width="120" height="60" as="geometry" />
        </mxCell>
        <mxCell id="yPEbqdjur7bi0oB6oJt5-128" value="SUB-TASK 2" style="whiteSpace=wrap;rounded=1;fillColor=#12AAB5;strokeColor=none;shadow=1;fontColor=#FFFFFF;" vertex="1" parent="1">
          <mxGeometry x="-193" y="529.9999999999998" width="120" height="60" as="geometry" />
        </mxCell>
        <mxCell id="yPEbqdjur7bi0oB6oJt5-129" value="WORK&#xa;PACKAGE 1" style="whiteSpace=wrap;rounded=1;fillColor=#999999;strokeColor=none;shadow=1;fontColor=#FFFFFF;fontStyle=0" vertex="1" parent="1">
          <mxGeometry x="-393.0000000000002" y="629.9999999999998" width="120" height="60" as="geometry" />
        </mxCell>
        <mxCell id="yPEbqdjur7bi0oB6oJt5-130" value="WORK&#xa;PACKAGE 2" style="whiteSpace=wrap;rounded=1;fillColor=#999999;strokeColor=none;shadow=1;fontColor=#FFFFFF;fontStyle=0" vertex="1" parent="1">
          <mxGeometry x="-393" y="709.9999999999998" width="120" height="60" as="geometry" />
        </mxCell>
        <mxCell id="yPEbqdjur7bi0oB6oJt5-131" value="WORK&#xa;PACKAGE 3" style="whiteSpace=wrap;rounded=1;fillColor=#999999;strokeColor=none;shadow=1;fontColor=#FFFFFF;fontStyle=0" vertex="1" parent="1">
          <mxGeometry x="-393.0000000000002" y="789.9999999999995" width="120" height="60" as="geometry" />
        </mxCell>
        <mxCell id="yPEbqdjur7bi0oB6oJt5-132" value="WORK&#xa;PACKAGE 4" style="whiteSpace=wrap;rounded=1;fillColor=#999999;strokeColor=none;shadow=1;fontColor=#FFFFFF;fontStyle=0" vertex="1" parent="1">
          <mxGeometry x="-393" y="869.9999999999995" width="120" height="60" as="geometry" />
        </mxCell>
        <mxCell id="yPEbqdjur7bi0oB6oJt5-133" value="WORK&#xa;PACKAGE 5" style="whiteSpace=wrap;rounded=1;fillColor=#999999;strokeColor=none;shadow=1;fontColor=#FFFFFF;fontStyle=0" vertex="1" parent="1">
          <mxGeometry x="-393" y="949.9999999999995" width="120" height="60" as="geometry" />
        </mxCell>
        <mxCell id="yPEbqdjur7bi0oB6oJt5-134" value="WORK&#xa;PACKAGE 1" style="whiteSpace=wrap;rounded=1;fillColor=#999999;strokeColor=none;shadow=1;fontColor=#FFFFFF;fontStyle=0" vertex="1" parent="1">
          <mxGeometry x="-193.0000000000009" y="629.9999999999998" width="120" height="60" as="geometry" />
        </mxCell>
        <mxCell id="yPEbqdjur7bi0oB6oJt5-135" value="WORK&#xa;PACKAGE 2" style="whiteSpace=wrap;rounded=1;fillColor=#999999;strokeColor=none;shadow=1;fontColor=#FFFFFF;fontStyle=0" vertex="1" parent="1">
          <mxGeometry x="-193.00000000000045" y="709.9999999999998" width="120" height="60" as="geometry" />
        </mxCell>
        <mxCell id="yPEbqdjur7bi0oB6oJt5-136" value="WORK&#xa;PACKAGE 3" style="whiteSpace=wrap;rounded=1;fillColor=#999999;strokeColor=none;shadow=1;fontColor=#FFFFFF;fontStyle=0" vertex="1" parent="1">
          <mxGeometry x="-193.00000000000045" y="789.9999999999995" width="120" height="60" as="geometry" />
        </mxCell>
        <mxCell id="yPEbqdjur7bi0oB6oJt5-137" value="WORK&#xa;PACKAGE 4" style="whiteSpace=wrap;rounded=1;fillColor=#999999;strokeColor=none;shadow=1;fontColor=#FFFFFF;fontStyle=0" vertex="1" parent="1">
          <mxGeometry x="-193.00000000000045" y="869.9999999999995" width="120" height="60" as="geometry" />
        </mxCell>
        <mxCell id="yPEbqdjur7bi0oB6oJt5-138" value="WORK&#xa;PACKAGE 5" style="whiteSpace=wrap;rounded=1;fillColor=#999999;strokeColor=none;shadow=1;fontColor=#FFFFFF;fontStyle=0" vertex="1" parent="1">
          <mxGeometry x="-193" y="949.9999999999995" width="120" height="60" as="geometry" />
        </mxCell>
        <mxCell id="yPEbqdjur7bi0oB6oJt5-139" value="" style="edgeStyle=elbowEdgeStyle;elbow=horizontal;rounded=0;fontColor=#000000;endArrow=none;endFill=0;strokeWidth=8;strokeColor=#23445D;" edge="1" parent="1" source="yPEbqdjur7bi0oB6oJt5-127" target="yPEbqdjur7bi0oB6oJt5-129">
          <mxGeometry width="100" height="100" relative="1" as="geometry">
            <mxPoint x="-413" y="560" as="sourcePoint" />
            <mxPoint x="-403.00000000000045" y="659.9999999999995" as="targetPoint" />
            <Array as="points">
              <mxPoint x="-413" y="609.9999999999995" />
            </Array>
          </mxGeometry>
        </mxCell>
        <mxCell id="yPEbqdjur7bi0oB6oJt5-140" value="" style="edgeStyle=elbowEdgeStyle;elbow=horizontal;rounded=0;fontColor=#000000;endArrow=none;endFill=0;strokeWidth=8;strokeColor=#23445D;" edge="1" parent="1" source="yPEbqdjur7bi0oB6oJt5-127" target="yPEbqdjur7bi0oB6oJt5-130">
          <mxGeometry width="100" height="100" relative="1" as="geometry">
            <mxPoint x="-403" y="559.9999999999995" as="sourcePoint" />
            <mxPoint x="-403.0000000000002" y="739.9999999999995" as="targetPoint" />
            <Array as="points">
              <mxPoint x="-413" y="649.9999999999995" />
            </Array>
          </mxGeometry>
        </mxCell>
        <mxCell id="yPEbqdjur7bi0oB6oJt5-141" value="" style="edgeStyle=elbowEdgeStyle;elbow=horizontal;rounded=0;fontColor=#000000;endArrow=none;endFill=0;strokeWidth=8;strokeColor=#23445D;" edge="1" parent="1" source="yPEbqdjur7bi0oB6oJt5-127" target="yPEbqdjur7bi0oB6oJt5-133">
          <mxGeometry width="100" height="100" relative="1" as="geometry">
            <mxPoint x="-403" y="559.9999999999995" as="sourcePoint" />
            <mxPoint x="-403" y="979.9999999999995" as="targetPoint" />
            <Array as="points">
              <mxPoint x="-413" y="779.9999999999995" />
            </Array>
          </mxGeometry>
        </mxCell>
        <mxCell id="yPEbqdjur7bi0oB6oJt5-142" value="" style="edgeStyle=elbowEdgeStyle;elbow=horizontal;rounded=0;fontColor=#000000;endArrow=none;endFill=0;strokeWidth=8;strokeColor=#23445D;" edge="1" parent="1" source="yPEbqdjur7bi0oB6oJt5-127" target="yPEbqdjur7bi0oB6oJt5-132">
          <mxGeometry width="100" height="100" relative="1" as="geometry">
            <mxPoint x="-403" y="559.9999999999995" as="sourcePoint" />
            <mxPoint x="-403" y="899.9999999999995" as="targetPoint" />
            <Array as="points">
              <mxPoint x="-413" y="729.9999999999995" />
            </Array>
          </mxGeometry>
        </mxCell>
        <mxCell id="yPEbqdjur7bi0oB6oJt5-143" value="" style="edgeStyle=elbowEdgeStyle;elbow=horizontal;rounded=0;fontColor=#000000;endArrow=none;endFill=0;strokeWidth=8;strokeColor=#23445D;" edge="1" parent="1" source="yPEbqdjur7bi0oB6oJt5-127" target="yPEbqdjur7bi0oB6oJt5-131">
          <mxGeometry width="100" height="100" relative="1" as="geometry">
            <mxPoint x="-403" y="559.9999999999995" as="sourcePoint" />
            <mxPoint x="-403.0000000000002" y="819.9999999999995" as="targetPoint" />
            <Array as="points">
              <mxPoint x="-413" y="699.9999999999995" />
            </Array>
          </mxGeometry>
        </mxCell>
        <mxCell id="yPEbqdjur7bi0oB6oJt5-144" value="" style="edgeStyle=elbowEdgeStyle;elbow=horizontal;rounded=0;fontColor=#000000;endArrow=none;endFill=0;strokeWidth=8;strokeColor=#23445D;" edge="1" parent="1" source="yPEbqdjur7bi0oB6oJt5-128" target="yPEbqdjur7bi0oB6oJt5-134">
          <mxGeometry width="100" height="100" relative="1" as="geometry">
            <mxPoint x="-223" y="560" as="sourcePoint" />
            <mxPoint x="-213.00000000000045" y="659.9999999999995" as="targetPoint" />
            <Array as="points">
              <mxPoint x="-213" y="609.9999999999995" />
            </Array>
          </mxGeometry>
        </mxCell>
        <mxCell id="yPEbqdjur7bi0oB6oJt5-145" value="" style="edgeStyle=elbowEdgeStyle;elbow=horizontal;rounded=0;fontColor=#000000;endArrow=none;endFill=0;strokeWidth=8;strokeColor=#23445D;" edge="1" parent="1" source="yPEbqdjur7bi0oB6oJt5-128" target="yPEbqdjur7bi0oB6oJt5-135">
          <mxGeometry width="100" height="100" relative="1" as="geometry">
            <mxPoint x="-213" y="559.9999999999995" as="sourcePoint" />
            <mxPoint x="-213" y="739.9999999999995" as="targetPoint" />
            <Array as="points">
              <mxPoint x="-213" y="649.9999999999995" />
            </Array>
          </mxGeometry>
        </mxCell>
        <mxCell id="yPEbqdjur7bi0oB6oJt5-146" value="" style="edgeStyle=elbowEdgeStyle;elbow=horizontal;rounded=0;fontColor=#000000;endArrow=none;endFill=0;strokeWidth=8;strokeColor=#23445D;" edge="1" parent="1" source="yPEbqdjur7bi0oB6oJt5-128" target="yPEbqdjur7bi0oB6oJt5-138">
          <mxGeometry width="100" height="100" relative="1" as="geometry">
            <mxPoint x="-213" y="559.9999999999995" as="sourcePoint" />
            <mxPoint x="-213" y="979.9999999999995" as="targetPoint" />
            <Array as="points">
              <mxPoint x="-213" y="769.9999999999995" />
            </Array>
          </mxGeometry>
        </mxCell>
        <mxCell id="yPEbqdjur7bi0oB6oJt5-147" value="" style="edgeStyle=elbowEdgeStyle;elbow=horizontal;rounded=0;fontColor=#000000;endArrow=none;endFill=0;strokeWidth=8;strokeColor=#23445D;" edge="1" parent="1" source="yPEbqdjur7bi0oB6oJt5-128" target="yPEbqdjur7bi0oB6oJt5-137">
          <mxGeometry width="100" height="100" relative="1" as="geometry">
            <mxPoint x="-213" y="559.9999999999995" as="sourcePoint" />
            <mxPoint x="-213" y="899.9999999999995" as="targetPoint" />
            <Array as="points">
              <mxPoint x="-213" y="729.9999999999995" />
            </Array>
          </mxGeometry>
        </mxCell>
        <mxCell id="yPEbqdjur7bi0oB6oJt5-148" value="" style="edgeStyle=elbowEdgeStyle;elbow=horizontal;rounded=0;fontColor=#000000;endArrow=none;endFill=0;strokeWidth=8;strokeColor=#23445D;" edge="1" parent="1" source="yPEbqdjur7bi0oB6oJt5-128" target="yPEbqdjur7bi0oB6oJt5-136">
          <mxGeometry width="100" height="100" relative="1" as="geometry">
            <mxPoint x="-213" y="559.9999999999995" as="sourcePoint" />
            <mxPoint x="-213" y="819.9999999999995" as="targetPoint" />
            <Array as="points">
              <mxPoint x="-213" y="699.9999999999995" />
            </Array>
          </mxGeometry>
        </mxCell>
        <mxCell id="yPEbqdjur7bi0oB6oJt5-149" value="" style="edgeStyle=elbowEdgeStyle;elbow=vertical;rounded=0;fontColor=#000000;endArrow=none;endFill=0;strokeWidth=8;strokeColor=#23445D;" edge="1" parent="1" source="yPEbqdjur7bi0oB6oJt5-10" target="yPEbqdjur7bi0oB6oJt5-61">
          <mxGeometry width="100" height="100" relative="1" as="geometry">
            <mxPoint x="-1533" y="500" as="sourcePoint" />
            <mxPoint x="-1433" y="400" as="targetPoint" />
          </mxGeometry>
        </mxCell>
        <mxCell id="yPEbqdjur7bi0oB6oJt5-150" value="" style="edgeStyle=elbowEdgeStyle;elbow=vertical;rounded=0;fontColor=#000000;endArrow=none;endFill=0;strokeWidth=8;strokeColor=#23445D;" edge="1" parent="1" source="yPEbqdjur7bi0oB6oJt5-10" target="yPEbqdjur7bi0oB6oJt5-62">
          <mxGeometry width="100" height="100" relative="1" as="geometry">
            <mxPoint x="-1283" y="510" as="sourcePoint" />
            <mxPoint x="-1183" y="410" as="targetPoint" />
          </mxGeometry>
        </mxCell>
        <mxCell id="yPEbqdjur7bi0oB6oJt5-151" value="" style="edgeStyle=elbowEdgeStyle;elbow=vertical;rounded=0;fontColor=#000000;endArrow=none;endFill=0;strokeWidth=8;strokeColor=#23445D;" edge="1" parent="1" source="yPEbqdjur7bi0oB6oJt5-11" target="yPEbqdjur7bi0oB6oJt5-83">
          <mxGeometry width="100" height="100" relative="1" as="geometry">
            <mxPoint x="-973" y="530" as="sourcePoint" />
            <mxPoint x="-1073" y="420" as="targetPoint" />
          </mxGeometry>
        </mxCell>
        <mxCell id="yPEbqdjur7bi0oB6oJt5-152" value="" style="edgeStyle=elbowEdgeStyle;elbow=vertical;rounded=0;fontColor=#000000;endArrow=none;endFill=0;strokeWidth=8;strokeColor=#23445D;" edge="1" parent="1" source="yPEbqdjur7bi0oB6oJt5-11" target="yPEbqdjur7bi0oB6oJt5-84">
          <mxGeometry width="100" height="100" relative="1" as="geometry">
            <mxPoint x="-883" y="520" as="sourcePoint" />
            <mxPoint x="-783" y="420" as="targetPoint" />
          </mxGeometry>
        </mxCell>
        <mxCell id="yPEbqdjur7bi0oB6oJt5-153" value="" style="edgeStyle=elbowEdgeStyle;elbow=vertical;rounded=0;fontColor=#000000;endArrow=none;endFill=0;strokeWidth=8;strokeColor=#23445D;" edge="1" parent="1" source="yPEbqdjur7bi0oB6oJt5-12" target="yPEbqdjur7bi0oB6oJt5-105">
          <mxGeometry width="100" height="100" relative="1" as="geometry">
            <mxPoint x="-763" y="520" as="sourcePoint" />
            <mxPoint x="-663" y="420" as="targetPoint" />
          </mxGeometry>
        </mxCell>
        <mxCell id="yPEbqdjur7bi0oB6oJt5-154" value="" style="edgeStyle=elbowEdgeStyle;elbow=vertical;rounded=0;fontColor=#000000;endArrow=none;endFill=0;strokeWidth=8;strokeColor=#23445D;" edge="1" parent="1" source="yPEbqdjur7bi0oB6oJt5-12" target="yPEbqdjur7bi0oB6oJt5-106">
          <mxGeometry width="100" height="100" relative="1" as="geometry">
            <mxPoint x="-533" y="520" as="sourcePoint" />
            <mxPoint x="-433" y="420" as="targetPoint" />
          </mxGeometry>
        </mxCell>
        <mxCell id="yPEbqdjur7bi0oB6oJt5-155" value="" style="edgeStyle=elbowEdgeStyle;elbow=vertical;rounded=0;fontColor=#000000;endArrow=none;endFill=0;strokeWidth=8;strokeColor=#23445D;" edge="1" parent="1" source="yPEbqdjur7bi0oB6oJt5-9" target="yPEbqdjur7bi0oB6oJt5-127">
          <mxGeometry width="100" height="100" relative="1" as="geometry">
            <mxPoint x="-413" y="520" as="sourcePoint" />
            <mxPoint x="-313" y="420" as="targetPoint" />
          </mxGeometry>
        </mxCell>
        <mxCell id="yPEbqdjur7bi0oB6oJt5-156" value="" style="edgeStyle=elbowEdgeStyle;elbow=vertical;rounded=0;fontColor=#000000;endArrow=none;endFill=0;strokeWidth=8;strokeColor=#23445D;" edge="1" parent="1" source="yPEbqdjur7bi0oB6oJt5-9" target="yPEbqdjur7bi0oB6oJt5-128">
          <mxGeometry width="100" height="100" relative="1" as="geometry">
            <mxPoint x="-153" y="520" as="sourcePoint" />
            <mxPoint x="-53" y="420" as="targetPoint" />
          </mxGeometry>
        </mxCell>
        <mxCell id="yPEbqdjur7bi0oB6oJt5-157" value="" style="edgeStyle=elbowEdgeStyle;elbow=vertical;rounded=1;fontColor=#000000;endArrow=block;endFill=1;strokeWidth=4;strokeColor=#000000;fillColor=#a20025;" edge="1" parent="1" source="yPEbqdjur7bi0oB6oJt5-6" target="yPEbqdjur7bi0oB6oJt5-7">
          <mxGeometry width="100" height="100" relative="1" as="geometry">
            <mxPoint x="-1773" y="370" as="sourcePoint" />
            <mxPoint x="-1673" y="270" as="targetPoint" />
          </mxGeometry>
        </mxCell>
        <mxCell id="yPEbqdjur7bi0oB6oJt5-158" value="" style="edgeStyle=elbowEdgeStyle;elbow=vertical;rounded=1;fontColor=#000000;endArrow=block;endFill=1;strokeWidth=4;strokeColor=#000000;fillColor=#a20025;" edge="1" parent="1" source="yPEbqdjur7bi0oB6oJt5-6" target="yPEbqdjur7bi0oB6oJt5-8">
          <mxGeometry width="100" height="100" relative="1" as="geometry">
            <mxPoint x="-1763" y="380" as="sourcePoint" />
            <mxPoint x="-1663" y="280" as="targetPoint" />
          </mxGeometry>
        </mxCell>
        <mxCell id="yPEbqdjur7bi0oB6oJt5-159" value="" style="edgeStyle=elbowEdgeStyle;elbow=vertical;rounded=1;fontColor=#000000;endArrow=block;endFill=1;strokeWidth=4;strokeColor=#000000;fillColor=#a20025;" edge="1" parent="1" source="yPEbqdjur7bi0oB6oJt5-6" target="yPEbqdjur7bi0oB6oJt5-10">
          <mxGeometry width="100" height="100" relative="1" as="geometry">
            <mxPoint x="-1753" y="390" as="sourcePoint" />
            <mxPoint x="-1653" y="290" as="targetPoint" />
          </mxGeometry>
        </mxCell>
        <mxCell id="yPEbqdjur7bi0oB6oJt5-160" value="" style="edgeStyle=elbowEdgeStyle;elbow=vertical;rounded=1;fontColor=#000000;endArrow=block;endFill=1;strokeWidth=4;strokeColor=#000000;fillColor=#a20025;" edge="1" parent="1" source="yPEbqdjur7bi0oB6oJt5-6" target="yPEbqdjur7bi0oB6oJt5-11">
          <mxGeometry width="100" height="100" relative="1" as="geometry">
            <mxPoint x="-1743" y="400" as="sourcePoint" />
            <mxPoint x="-1643" y="300" as="targetPoint" />
          </mxGeometry>
        </mxCell>
        <mxCell id="yPEbqdjur7bi0oB6oJt5-161" value="" style="edgeStyle=elbowEdgeStyle;elbow=vertical;rounded=1;fontColor=#000000;endArrow=block;endFill=1;strokeWidth=4;strokeColor=#000000;fillColor=#a20025;" edge="1" parent="1" source="yPEbqdjur7bi0oB6oJt5-6" target="yPEbqdjur7bi0oB6oJt5-12">
          <mxGeometry width="100" height="100" relative="1" as="geometry">
            <mxPoint x="-1733" y="410" as="sourcePoint" />
            <mxPoint x="-1633" y="310" as="targetPoint" />
          </mxGeometry>
        </mxCell>
        <mxCell id="yPEbqdjur7bi0oB6oJt5-162" value="" style="edgeStyle=elbowEdgeStyle;elbow=vertical;rounded=1;fontColor=#000000;endArrow=block;endFill=1;strokeWidth=4;strokeColor=#000000;fillColor=#a20025;" edge="1" parent="1" source="yPEbqdjur7bi0oB6oJt5-6" target="yPEbqdjur7bi0oB6oJt5-9">
          <mxGeometry width="100" height="100" relative="1" as="geometry">
            <mxPoint x="-1723" y="420" as="sourcePoint" />
            <mxPoint x="-1623" y="320" as="targetPoint" />
          </mxGeometry>
        </mxCell>
      </root>
    </mxGraphModel>
  </diagram>
</mxfile>
